<mxfile host="app.diagrams.net" modified="2023-07-02T01:44:43.507Z" agent="Mozilla/5.0 (Windows NT 10.0; Win64; x64) AppleWebKit/537.36 (KHTML, like Gecko) Chrome/114.0.0.0 Safari/537.36" version="21.3.8" etag="7fy6WbznYPoy92HrY2b-" type="github">
  <diagram name="Page-1" id="_xZMvW-x-NT1MgxAjenF">
    <mxGraphModel>
      <root>
        <mxCell id="0" />
        <mxCell id="1" parent="0" />
      </root>
    </mxGraphModel>
  </diagram>
</mxfile>
